<?xml version="1.0" standalone="no"?>
<!DOCTYPE svg PUBLIC "-//W3C//DTD SVG 20010904//EN"
 "http://www.w3.org/TR/2001/REC-SVG-20010904/DTD/svg10.dtd">
<svg version="1.0" xmlns="http://www.w3.org/2000/svg"
 width="500.000000pt" height="500.000000pt" viewBox="0 0 500.000000 500.000000"
 preserveAspectRatio="xMidYMid meet">
<metadata>
Created by potrace 1.11, written by Peter Selinger 2001-2013
</metadata>
<g transform="translate(0.000000,500.000000) scale(0.100000,-0.100000)"
fill="#000000" stroke="none">
<path d="M1342 3439 c-125 -15 -195 -32 -282 -70 -361 -154 -585 -501 -575
-892 2 -112 33 -275 56 -304 7 -7 8 -13 5 -13 -10 0 62 -137 101 -193 63 -90
132 -161 213 -222 85 -62 218 -129 300 -150 411 -109 819 40 1046 382 116 173
160 328 157 548 -3 237 -93 452 -262 629 -175 182 -381 272 -666 290 -16 1
-58 -1 -93 -5z"/>
<path d="M3485 3438 c-398 -40 -724 -322 -826 -716 -26 -98 -32 -281 -13 -383
43 -230 174 -449 349 -581 17 -12 32 -25 35 -28 8 -10 102 -63 155 -88 28 -13
86 -34 130 -47 537 -156 1091 190 1189 743 19 110 14 277 -14 387 -78 313
-302 558 -610 667 -30 11 -66 22 -80 24 -14 3 -32 7 -40 9 -17 5 -108 15 -160
19 -19 1 -71 -2 -115 -6z"/>
</g>
</svg>
